<?xml version="1.0" encoding="UTF-8"?>
<svg id="katman_2" data-name="katman 2" xmlns="http://www.w3.org/2000/svg" viewBox="0 0 249.1 249.33">
  <defs>
    <style>
      .cls-1 {
        fill: #010101;
        fill-rule: evenodd;
      }
    </style>
  </defs>
  <g id="katman_1" data-name="katman 1">
    <g>
      <path class="cls-1" d="M80.03,105.81c-7.39,17.54-3.92,38.59,10.4,52.92,14.27,14.27,35.33,17.74,52.86,10.35,6.43-2.71,13.47-1.36,18.39,3.57l59.75,59.75c2.86,2.91,3.72,7.04,2.11,10.8-1.56,3.77-5.08,6.13-9.15,6.13-30.05-.1-60.1-.15-90.15-.2v-.05c-31.76-.05-63.52-12.21-87.79-36.43C-7.21,168.97-11.63,100.93,23.09,52.29c1.96-2.76,4.72-4.32,8.09-4.62,3.37-.25,6.33.85,8.74,3.22l36.53,36.53c4.93,4.92,6.28,11.96,3.57,18.39h0Z"/>
      <path class="cls-1" d="M212.64,36.46c43.67,43.72,48.09,111.76,13.37,160.4-1.96,2.71-4.72,4.27-8.09,4.57-3.37.3-6.33-.8-8.74-3.22l-17.84-17.79-18.69-18.74c-4.92-4.92-6.28-11.96-3.57-18.39,7.39-17.54,3.92-38.59-10.4-52.86-14.27-14.32-35.33-17.79-52.86-10.35-6.43,2.66-13.47,1.31-18.39-3.62l-24.47-24.47-12.06-12.06c-2.41-2.36-3.47-5.38-3.22-8.74.3-3.32,1.86-6.13,4.57-8.09,48.69-34.72,116.74-30.3,160.4,13.37h0Z"/>
    </g>
  </g>
</svg>